<?xml version="1.0" encoding="UTF-8" standalone="no"?>
<svg
   xmlns:dc="http://purl.org/dc/elements/1.1/"
   xmlns:cc="http://creativecommons.org/ns#"
   xmlns:rdf="http://www.w3.org/1999/02/22-rdf-syntax-ns#"
   xmlns:svg="http://www.w3.org/2000/svg"
   xmlns="http://www.w3.org/2000/svg"
   xmlns:sodipodi="http://sodipodi.sourceforge.net/DTD/sodipodi-0.dtd"
   xmlns:inkscape="http://www.inkscape.org/namespaces/inkscape"
   viewBox="0 0 600.27198 171.83996"
   height="171.83997"
   width="600.27197"
   xml:space="preserve"
   version="1.1"
   id="svg2"
   sodipodi:docname="logo.svg"
   inkscape:version="0.92.4 (5da689c313, 2019-01-14)"><sodipodi:namedview
   pagecolor="#ffffff"
   bordercolor="#666666"
   borderopacity="1"
   objecttolerance="10"
   gridtolerance="10"
   guidetolerance="10"
   inkscape:pageopacity="0"
   inkscape:pageshadow="2"
   inkscape:window-width="1920"
   inkscape:window-height="1017"
   id="namedview52"
   showgrid="false"
   inkscape:zoom="1.1421655"
   inkscape:cx="27.970623"
   inkscape:cy="34.838317"
   inkscape:window-x="-4"
   inkscape:window-y="-4"
   inkscape:window-maximized="1"
   inkscape:current-layer="svg2"
   showguides="false" /><metadata
   id="metadata8"><rdf:RDF><cc:Work
       rdf:about=""><dc:format>image/svg+xml</dc:format><dc:type
         rdf:resource="http://purl.org/dc/dcmitype/StillImage" /><dc:title></dc:title></cc:Work></rdf:RDF></metadata><defs
   id="defs6"><clipPath
     id="clipPath16"
     clipPathUnits="userSpaceOnUse"><path
       id="path18"
       d="M 0,618.062 H 1949.984 V 0 H 0 Z"
       inkscape:connector-curvature="0" /></clipPath></defs>

<g
   id="g823"><g
     id="g825"><g
   aria-label="a"
   style="font-style:normal;font-variant:normal;font-weight:normal;font-stretch:normal;font-size:157.48666382px;line-height:1.25;font-family:'Game Logos';-inkscape-font-specification:'Game Logos';letter-spacing:0px;word-spacing:0px;fill:#000000;fill-opacity:1;stroke:none;stroke-width:3.93716669"
   id="text909"><path
     d="M 31.960731,25.030288 H 143.61631 q 0.2307,0.0769 0.2307,0.307591 v 32.143274 l -0.1538,0.922774 H 36.113211 v 28.529078 q 0,0.307591 -0.230693,0.307591 h -3.921787 q -0.307591,0 -0.307591,-0.307591 V 54.097651 q 0.0769,-0.230694 0.307591,-0.230694 H 139.23314 V 29.644155 H 31.960731 q -0.307591,0 -0.307591,-0.307591 v -3.998685 q 0.0769,-0.307591 0.307591,-0.307591 z m 169.175129,0 h 61.36443 q 0.46139,0.0769 0.46139,1.153467 v 2.76832 l -0.1538,0.307591 q 0.1538,0 0.1538,0.0769 -0.53829,0.307591 -1.15347,0.307591 h -55.90469 l -0.30759,-0.153795 v 57.442645 q 0,0.307591 -0.23069,0.307591 H 144.0008 q -0.30759,0 -0.30759,-0.307591 v -4.075583 q 0.0769,-0.230693 0.30759,-0.230693 v 0.153796 l 0.30759,-0.153796 q 0.1538,0 0.1538,0.153796 l 0.23069,-0.153796 h 55.7509 l 0.30759,0.153796 0.15379,-0.307592 V 25.337879 q 0,-0.307591 0.2307,-0.307591 z m 78.43574,0 h 111.65558 q 0.2307,0.0769 0.2307,0.307591 v 32.835354 q 0,0.230694 -0.2307,0.230694 H 283.87787 v 28.529078 q 0,0.307591 -0.30759,0.307591 h -3.99868 q -0.30759,0 -0.30759,-0.307591 V 54.097651 q 0.0769,-0.230694 0.30759,-0.230694 H 386.9978 V 29.49036 H 279.5716 q -0.30759,0 -0.30759,-0.230694 v -3.921787 q 0.0769,-0.307591 0.30759,-0.307591 z M 149.61434,117.84591 q 4.15248,0 5.84423,3.22971 0.46139,1.07657 0.46139,1.92245 v 0.30759 q 0,0.23069 -0.30759,0.23069 h -1.15347 q -0.0769,0 -0.92277,-2.38383 -1.30726,-1.61485 -3.5373,-1.61485 h -0.99967 q -3.99869,0.46138 -3.99869,3.15281 v 0.61518 q 0,2.92211 7.2284,3.92178 4.22937,1.30727 4.22937,4.46008 v 0.92277 q 0,3.4604 -3.92178,4.76766 -1.69175,0.46139 -3.22971,0.46139 -5.22905,0 -6.53631,-4.92146 v -1.07657 q 0,-0.30759 0.23069,-0.30759 h 1.30726 q 0.2307,0 0.69208,2.23004 1.53796,2.38383 4.30628,2.38383 h 1.15347 q 4.15248,-0.38449 4.15248,-3.92179 v -0.1538 q 0,-3.07591 -7.38219,-4.15248 -4.07558,-1.46105 -4.07558,-4.61386 v -0.84588 q 0,-3.3835 5.07525,-4.46007 0.46139,-0.1538 1.38416,-0.1538 z m -54.674323,0.53829 h 7.459083 q 5.38285,0 5.38285,5.45974 0,4.38318 -5.99803,4.99836 -0.92277,0.15379 -2.922116,0.15379 h -2.383831 v 7.99737 q 0,0.2307 -0.230694,0.2307 h -1.307262 q -0.230693,0 -0.230693,-0.2307 v -18.30167 q 0,-0.30759 0.230693,-0.30759 z m 15.379553,0 h 1.15347 q 0.23069,0.0769 0.23069,0.30759 v 18.30167 q 0,0.2307 -0.23069,0.2307 h -1.15347 q -0.30759,0 -0.30759,-0.2307 v -18.30167 q 0.0769,-0.30759 0.30759,-0.30759 z m 80.20439,0 h 1.30727 q 0.23069,0.0769 0.23069,0.30759 v 1.76865 q 0,0.30759 -0.23069,0.30759 h -1.30727 q -0.23069,0 -0.23069,-0.30759 v -1.76865 q 0,-0.30759 0.23069,-0.30759 z m 42.75517,0 h 6.9977 q 4.76766,0 5.76733,3.76799 v 1.99934 q 0,4.07559 -5.76733,4.69077 -1.23036,0.15379 -3.07591,0.15379 h -2.38383 v 7.99737 q 0,0.2307 -0.2307,0.2307 h -1.30726 q -0.23069,0 -0.23069,-0.2307 v -18.30167 q 0,-0.30759 0.23069,-0.30759 z m 60.97995,0 h 1.07656 q 0.3076,0.0769 0.3076,0.30759 v 6.9977 h 0.15379 q 1.46106,-2.38383 4.61387,-2.38383 h 0.0769 q 4.07558,0 5.45974,3.92178 0.61518,1.23037 0.61518,3.15281 v 0.69208 q 0,5.38285 -4.92146,6.45942 -0.53828,0.15379 -1.23036,0.15379 -2.99902,0 -4.61387,-2.69142 h -0.15379 v 1.99934 q 0,0.2307 -0.3076,0.2307 h -1.07656 q -0.3076,0 -0.3076,-0.2307 v -18.30167 q 0.0769,-0.30759 0.3076,-0.30759 z m 15.91784,0 h 1.07657 q 0.30759,0.0769 0.30759,0.30759 v 18.30167 q 0,0.2307 -0.30759,0.2307 h -1.07657 q -0.30759,0 -0.30759,-0.2307 v -18.30167 q 0.0769,-0.30759 0.30759,-0.30759 z m -213.698947,1.53795 v 7.38219 h 4.613867 q 4.76766,0 4.76766,-3.15281 v -1.15346 q 0,-3.07592 -5.15215,-3.07592 z m 138.339117,0 v 7.38219 h 4.92146 q 4.46007,0 4.46007,-3.61419 v -0.53829 q 0,-3.22971 -5.15215,-3.22971 z m -74.20636,0 h 1.15346 q 0.2307,0.0769 0.2307,0.3076 v 3.4604 h 2.30693 q 0.23069,0.0769 0.23069,0.30759 v 0.92277 h -2.53762 v 9.84292 q 0,1.38416 1.15346,1.38416 h 0.38449 l 0.99967,-0.1538 0.1538,0.30759 v 0.84588 q 0,0.38449 -2.07624,0.53828 -2.23004,0 -2.23004,-3.07591 v -9.68912 h -1.53795 q -0.30759,0 -0.30759,-0.23069 v -0.69208 q 0.0769,-0.30759 0.30759,-0.30759 h 1.53795 v -3.4604 q 0,-0.3076 0.2307,-0.3076 z m 22.68484,0 h 1.38416 v 3.768 h 2.23004 q 0.30759,0.0769 0.30759,0.30759 v 0.69208 q 0,0.23069 -0.30759,0.23069 h -2.23004 v 9.84292 q 0,1.38416 1.07657,1.38416 h 0.46139 l 0.99967,-0.1538 0.0769,0.30759 v 0.84588 q 0,0.38449 -2.07624,0.53828 -2.23004,0 -2.23004,-3.07591 v -9.68912 h -1.84555 v -0.92277 q 0.0769,-0.30759 0.3076,-0.30759 h 1.53795 v -3.4604 q 0.0769,-0.3076 0.30759,-0.3076 z m 88.97074,0 h 1.38416 q 0.30759,0.0769 0.30759,0.3076 v 3.4604 h 2.23004 q 0.30759,0.0769 0.30759,0.30759 v 0.69208 q 0,0.23069 -0.30759,0.23069 h -2.23004 v 10.22741 q 0,0.99967 0.99967,0.99967 h 0.69208 l 0.69208,-0.1538 0.1538,0.30759 v 0.84588 q 0,0.46139 -1.99934,0.53828 -2.23004,0 -2.23004,-2.23003 v -10.535 h -1.69175 q -0.2307,0 -0.2307,-0.23069 v -0.69208 q 0,-0.30759 0.2307,-0.30759 h 1.69175 z m -151.48864,3.38351 h 0.61518 q 4.46008,0.38449 4.46008,2.92211 0.23069,0 0.23069,2.76832 v 6.69011 q 0,0.23069 0.46139,0.46139 l 0.99967,-0.1538 0.0769,0.30759 v 0.69208 q 0,0.38449 -1.23037,0.53829 -1.92244,0 -1.92244,-1.92245 -2.38383,2.07624 -5.22905,2.07624 -4.46007,-0.46138 -4.46007,-4.07558 0,-2.53763 2.92211,-3.6142 6.61321,-0.99967 6.61321,-1.53795 l 0.1538,-0.99967 q 0,-2.61453 -3.07592,-2.61453 h -0.84587 q -2.53763,0 -3.3835,2.38383 0,0.53829 -0.2307,0.53829 h -1.15346 q -0.30759,0 -0.30759,-0.30759 0,-2.61453 3.3835,-3.92179 1.07657,-0.23069 1.92244,-0.23069 z m 52.59809,0 q 4.69076,0 4.69076,4.99835 v 6.9977 q 0.1538,0.84588 0.46139,0.84588 l 0.99967,-0.1538 0.0769,0.30759 v 0.69208 q 0,0.38449 -1.23037,0.53829 -1.92244,0 -1.92244,-1.92245 -2.30693,2.07624 -5.22905,2.07624 -4.46007,-0.46138 -4.46007,-4.07558 0,-2.53763 2.92211,-3.6142 l 6.15183,-1.15346 q 0.61518,-0.46139 0.61518,-1.38416 -0.38449,-2.61453 -2.69142,-2.61453 h -1.23037 q -2.69142,0 -3.5373,2.76832 0,0.1538 -0.0769,0.1538 h -1.15347 q -0.30759,0 -0.30759,-0.30759 0,-3.4604 5.07525,-4.15248 z m 27.5294,0 h 0.53829 q 3.92179,0 5.61354,3.76799 0.53828,1.61485 0.53828,3.3066 v 0.46139 q 0,5.22905 -4.92146,6.69011 -1.23036,0.15379 -1.38416,0.15379 -5.45974,0 -6.30561,-6.45941 v -1.53796 q 0.84587,-6.38251 5.92112,-6.38251 z m 14.61058,0 h 0.3076 q 4.22937,0 4.76766,3.99868 v 9.68912 q 0,0.2307 -0.30759,0.2307 h -1.07657 q -0.30759,0 -0.30759,-0.2307 v -8.68945 q 0,-3.4604 -2.76832,-3.4604 h -1.15347 q -3.15281,0 -3.6142,4.84456 v 7.30529 q 0,0.2307 -0.30759,0.2307 h -1.07657 q -0.30759,0 -0.30759,-0.2307 v -12.99572 q 0.0769,-0.30759 0.30759,-0.30759 h 1.38416 v 1.69175 q 2.15314,-2.07624 4.15248,-2.07624 z m 37.37233,0 h 0.38449 q 4.69076,0 5.99802,5.30594 0,0.1538 0.1538,1.92245 0,4.92146 -4.15248,6.8439 -1.76865,0.30759 -2.23004,0.30759 -4.61386,0 -6.15182,-5.15215 -0.1538,-1.76865 -0.1538,-1.99934 0,-4.92146 3.6142,-6.69011 0.99967,-0.53828 2.53763,-0.53828 z m 14.61058,0 0.15379,0.23069 v 1.30726 q 0,0.2307 -2.07624,0.53829 -2.38383,1.07657 -2.38383,6.30562 v 5.30594 q 0,0.2307 -0.23069,0.2307 h -0.99967 q -0.3076,0 -0.3076,-0.2307 v -12.99572 q 0.0769,-0.30759 0.3076,-0.30759 h 0.99967 q 0.23069,0.0769 0.23069,0.30759 v 1.92244 q 1.38416,-2.61452 4.30628,-2.61452 z m 16.68682,0 h 0.53828 q 2.99901,0 4.22938,2.07624 0.38449,0.69208 0.38449,1.84554 v 7.68978 q 0,0.99967 0.53828,1.23037 l 0.99967,-0.1538 0.1538,0.30759 v 0.69208 q 0,0.38449 -1.30726,0.53829 -1.92245,0 -1.92245,-2.07624 -2.15314,2.23003 -5.15215,2.23003 -2.84522,0 -4.07558,-2.23003 -0.38449,-0.69208 -0.38449,-1.84555 0,-2.53763 2.92211,-3.6142 4.46008,-0.76897 6.30562,-1.23036 0.2307,-0.30759 0.38449,-1.30726 0,-2.61453 -3.07591,-2.61453 h -0.84588 q -3.3835,0.30759 -3.3835,2.76832 l -0.23069,0.1538 h -1.15347 q -0.23069,0 -0.23069,-0.46139 0,-2.53762 3.61419,-3.92178 z m 36.44955,0 h 0.38448 q 3.84489,0 5.45975,3.92178 0.46138,1.99935 0.46138,3.15281 v 0.1538 q 0,0.30759 -0.30759,0.30759 h -10.1505 v 0.23069 q 0,4.38318 3.99868,5.07526 h 0.53828 q 2.84522,0 3.92179,-2.76832 0.0769,-0.30759 0.30759,-0.30759 h 1.23037 q 0.30759,0 0.30759,0.30759 -0.84588,2.53762 -2.92212,3.76799 -1.76865,0.53828 -3.07591,0.53828 -4.22938,0 -5.76733,-4.22938 -0.38449,-1.76864 -0.38449,-3.07591 0,-5.30594 4.92146,-6.99769 0.53828,-0.0769 1.07657,-0.0769 z m -191.70618,0.38449 h 1.23036 q 0.46139,0 2.23004,5.61353 0.23069,0.2307 2.23003,5.84424 h 0.1538 q 3.99868,-11.45777 4.30628,-11.45777 h 1.53795 v 0.15379 q -5.15215,14.45679 -6.8439,17.4558 l -0.84588,0.84587 h -2.76832 q -0.23069,0 -0.23069,-0.30759 v -0.69208 l 0.0769,-0.23069 0.69208,0.0769 h 0.61518 q 1.46106,0 2.46073,-3.76799 -2.23004,-5.53664 -5.15215,-13.38022 z m 61.74892,0 h 1.15347 q 0.23069,0.0769 0.23069,0.30759 v 12.99572 q 0,0.2307 -0.23069,0.2307 h -1.15347 q -0.30759,0 -0.30759,-0.2307 v -12.99572 q 0.0769,-0.30759 0.30759,-0.30759 z m 5.99803,6.8439 q 0,4.53697 3.61419,5.61354 h 0.99967 q 3.38351,0 4.30628,-3.76799 0.1538,-1.53796 0.30759,-1.84555 0,-3.99869 -2.76832,-5.45974 -0.53828,-0.2307 -1.53796,-0.2307 h -0.61518 q -2.69142,0 -3.84489,2.92212 -0.46138,1.46106 -0.46138,2.76832 z m 51.8291,0.30759 q 0,3.5373 2.84522,4.99836 0.92278,0.30759 1.69175,0.30759 h 0.0769 q 3.07591,0 4.22938,-3.38351 0.23069,-1.07656 0.23069,-2.38383 v -0.23069 q 0,-4.30628 -3.4604,-5.30595 h -1.23036 q -3.6911,0 -4.38318,4.69077 z m 47.13835,-0.46139 q 0,4.53697 3.61419,5.76734 h 0.99967 q 3.99869,0 4.61387,-5.07526 v -0.53828 q 0,-4.92146 -4.07558,-5.69044 h -1.15347 q -3.3066,0 -3.99868,5.53664 z m 20.8393,-0.92277 h 8.76634 q -0.61518,-4.61387 -3.76799,-4.61387 h -0.69208 q -3.5373,0 -4.30627,4.61387 z m -90.04731,0.0769 h 0.30759 q 3.92179,0.53828 3.92179,3.92178 0,3.30661 -3.92179,3.768 h -0.30759 q -3.4604,-0.76898 -3.4604,-3.30661 v -0.99967 q 0,-2.61452 3.4604,-3.3835 z m -109.81004,4.07558 v 0.1538 q 0,2.38383 2.92212,2.38383 4.92146,-0.53829 4.92146,-3.6142 v -2.38383 q -1.15347,0.53828 -5.99803,1.07657 -1.84555,0.92277 -1.84555,2.38383 z m 51.9829,0 v 0.1538 q 0,2.38383 2.92212,2.38383 h 0.30759 q 4.61387,-0.46139 4.61387,-4.07559 v -1.76864 q -4.92146,0.69208 -6.45941,1.23036 -1.38417,0.69208 -1.38417,2.07624 z m 55.05882,-0.38449 v 0.38449 q 0,2.46073 3.22971,2.92212 2.53762,0 3.07591,-3.30661 0,-2.38383 -3.22971,-2.92211 -2.53763,0 -3.07591,2.92211 z m 56.28918,0.1538 v 0.53828 q 0,1.99934 2.84522,2.23004 h 0.0769 q 4.07559,0 4.76767,-3.38351 0.15379,-0.69208 0.15379,-1.76864 v -0.69208 l -6.45941,1.07656 q -1.38416,1.07657 -1.38416,1.99935 z m -54.59743,-2.30694 h 1.23036 q 1.61486,0 1.92245,0.84588 v 0.61518 q 0,0.38449 -0.23069,0.84588 0.23069,0.46138 0.38449,2.07624 h -0.69208 q -0.2307,0 -0.38449,-1.53796 l -0.3076,-0.15379 h -1.38416 v 1.38416 q 0,0.30759 -0.30759,0.30759 h -0.23069 q -0.30759,0 -0.30759,-0.30759 v -3.768 q 0.0769,-0.30759 0.30759,-0.30759 z m 0.53828,0.84588 v 1.15347 h 0.99968 q 0.69208,0 0.84587,-0.46139 v -0.38449 q 0,-0.30759 -0.30759,-0.30759 z"
     style="stroke-width:3.93716669"
     id="path825"
     inkscape:connector-curvature="0" /></g>
<g
   aria-label="minis"
   transform="scale(0.81389502,1.2286597)"
   style="font-style:normal;font-variant:normal;font-weight:normal;font-stretch:normal;font-size:127.96723938px;line-height:1.25;font-family:'Ratchet &amp; Clank PSP';-inkscape-font-specification:'Ratchet &amp; Clank PSP';letter-spacing:0px;word-spacing:0px;fill:#000080;fill-opacity:1;stroke:none;stroke-width:3.19918084"
   id="text819"><path
     d="M 431.06116,122.76443 V 82.774665 h 7.99795 v 39.989765 z m 95.97543,0 V 82.774665 h 7.99795 v 39.989765 z m -47.98772,0 V 82.774665 h -39.98976 v -7.997953 h 87.97748 v 7.997953 h -39.98977 v 39.989765 z"
     style="fill:#000080;stroke-width:3.19918084"
     id="path828"
     inkscape:connector-curvature="0" /><path
     d="M 545.78178,122.76443 V 74.776712 h 7.99796 v 47.987718 z m 0,-55.98567 v -7.997953 h 7.99796 v 7.997953 z"
     style="fill:#000080;stroke-width:3.19918084"
     id="path830"
     inkscape:connector-curvature="0" /><path
     d="M 612.51469,122.76443 V 82.774665 h 7.99795 v 39.989765 z m -47.98771,0 V 74.776712 h 47.98771 v 7.997953 h -39.98976 v 39.989765 z"
     style="fill:#000080;stroke-width:3.19918084"
     id="path832"
     inkscape:connector-curvature="0" /><path
     d="M 631.2599,122.76443 V 74.776712 h 7.99796 v 47.987718 z m 0,-55.98567 v -7.997953 h 7.99796 v 7.997953 z"
     style="fill:#000080;stroke-width:3.19918084"
     id="path834"
     inkscape:connector-curvature="0" /><path
     d="m 650.0051,122.76443 v -7.99796 h 55.98566 v 7.99796 z m 55.98566,-7.99796 v -7.99795 h 7.99796 v 7.99795 z m -47.98771,-7.99795 v -7.99795 h 47.98771 v 7.99795 z M 650.0051,98.77057 V 82.774665 h 7.99795 V 98.77057 Z m 7.99795,-15.995905 v -7.997953 h 55.98567 v 7.997953 z"
     style="fill:#000080;stroke-width:3.19918084"
     id="path836"
     inkscape:connector-curvature="0" /></g>
</g></g></svg>