<?xml version="1.0" encoding="UTF-8" standalone="no"?>
<!-- Generator: Adobe Illustrator 13.0.0, SVG Export Plug-In . SVG Version: 6.00 Build 14948)  -->

<svg
   xmlns:dc="http://purl.org/dc/elements/1.1/"
   xmlns:cc="http://creativecommons.org/ns#"
   xmlns:rdf="http://www.w3.org/1999/02/22-rdf-syntax-ns#"
   xmlns:svg="http://www.w3.org/2000/svg"
   xmlns="http://www.w3.org/2000/svg"
   xmlns:sodipodi="http://sodipodi.sourceforge.net/DTD/sodipodi-0.dtd"
   xmlns:inkscape="http://www.inkscape.org/namespaces/inkscape"
   version="1.2"
   id="Layer_1"
   x="0px"
   y="0px"
   width="601.1413"
   height="100.50459"
   viewBox="0 0 601.1413 100.50458"
   xml:space="preserve"
   sodipodi:docname="logo.svg"
   inkscape:version="0.92.4 (5da689c313, 2019-01-14)"><metadata
   id="metadata31"><rdf:RDF><cc:Work
       rdf:about=""><dc:format>image/svg+xml</dc:format><dc:type
         rdf:resource="http://purl.org/dc/dcmitype/StillImage" /><dc:title></dc:title></cc:Work></rdf:RDF></metadata><defs
   id="defs29" /><sodipodi:namedview
   pagecolor="#ffffff"
   bordercolor="#666666"
   borderopacity="1"
   objecttolerance="10"
   gridtolerance="10"
   guidetolerance="10"
   inkscape:pageopacity="0"
   inkscape:pageshadow="2"
   inkscape:window-width="1920"
   inkscape:window-height="1018"
   id="namedview27"
   showgrid="false"
   inkscape:zoom="0.6138324"
   inkscape:cx="-51.316937"
   inkscape:cy="53.113007"
   inkscape:window-x="-8"
   inkscape:window-y="-8"
   inkscape:window-maximized="1"
   inkscape:current-layer="Layer_1" />

<g
   id="g848"><g
     style="fill:#000080"
     transform="matrix(1.0603448,0,0,1.0603448,0,-0.00204136)"
     id="g22">
	<path
   style="fill:#000080"
   d="m 556.359,85.077 v -6.146 h -2.285 v -0.789 h 5.444 v 0.789 h -2.266 v 6.146 z"
   id="polygon2"
   inkscape:connector-curvature="0" />
	<path
   style="fill:#000080"
   d="m 561.318,85.077 h -0.914 v -6.935 h 1.264 l 2,5.896 1.998,-5.896 h 1.264 v 6.935 h -0.91 v -5.635 l -1.895,5.635 h -0.914 l -1.893,-5.635 z"
   id="polygon4"
   inkscape:connector-curvature="0" />
	<path
   id="path6"
   d="m 122.813,19.344 c 0,-2.409 -0.458,-5.529 -1.522,-6.841 6.973,0 22.039,0.046 28.497,0.046 14.859,0 37.277,8.247 37.277,36.052 0,20.635 -15.826,36.008 -37.277,36.008 -4.705,0 -22.67,-0.058 -29.044,-0.058 1.306,-2.411 2.069,-5.685 2.069,-8.269 z M 133.5,77.543 c 6.858,0.892 13.189,1.165 18.917,0.347 5.542,-0.793 24.165,-4.805 24.049,-29.529 -0.109,-23.431 -14.581,-28.788 -25.731,-29.443 -5.819,-0.343 -11.436,-0.123 -17.236,0.881 z"
   inkscape:connector-curvature="0"
   style="fill:#000080" />
	<path
   id="path8"
   d="m 193.187,34.642 10.676,-1.667 c 0,2.186 0,8.596 0,9.4 2.738,-6.767 11.259,-12.205 23.366,-7.493 l -2.838,7.433 c -11.082,-5.26 -20.528,-0.646 -20.528,11.661 V 79.37 c 0,1.209 0.264,3.648 0.985,5.213 h -11.089 c 1.12,-1.381 1.64,-4.004 1.64,-5.213 V 42.74 c -0.003,-2.657 -0.545,-6.77 -2.212,-8.098 z"
   inkscape:connector-curvature="0"
   style="fill:#000080" />
	<path
   id="path10"
   d="m 530.719,39.738 c 0,0.693 0,30.229 0,32.434 0,10.183 7.019,12.905 12.219,12.905 2.197,0.107 5.313,-0.406 7.488,-0.889 l 1.338,-6.285 c -2.535,0.97 -5.481,1.197 -7.25,1.197 -3.26,0 -5.617,-2.164 -5.617,-5.549 0,-3.037 -0.077,-32.809 0,-33.761 h -0.034 c 0.432,0 7.196,-0.024 7.879,0 2.217,0.078 3.92,0.213 5.387,0.803 l 0.008,-5.919 c 0,0 -12.985,-0.017 -13.239,-0.017 l 0.053,-15.181 -9.838,2.719 c 1.356,1.269 1.797,4.982 1.797,7.431 0,0 -0.008,4.536 -0.008,5.083 -0.441,0 -5.438,0.025 -6.265,0.025 v 5.001 c 0.873,0 6.082,0.003 6.082,0.003 z"
   inkscape:connector-curvature="0"
   style="fill:#000080" />
	<path
   id="path12"
   d="m 488.193,74.036 c 4.229,3.021 10.866,5.703 15.733,5.703 6.752,0 11.588,-3.285 11.588,-9.469 0,-11.414 -26.022,-9.522 -26.022,-24.004 0,-9.792 8.756,-13.476 17.1,-13.476 2.683,0 8.806,0.582 12.697,2.088 l -0.031,6.688 c -3.459,-2.955 -8.735,-3.669 -12.213,-3.669 -5.521,0 -9.668,2.74 -9.668,8.112 0,7.887 26.002,7.43 26.002,23.621 0,10.471 -9.07,15.354 -19.055,15.354 -4.865,0 -9.939,-0.862 -14.16,-2.071 z"
   inkscape:connector-curvature="0"
   style="fill:#000080" />
	<path
   id="path14"
   d="m 331.107,39.839 c 0,-0.592 0.021,-5.895 0.021,-6.574 l -10.809,1.671 c 1.303,1.365 2.303,5.623 2.303,8.667 v 35.414 c 0,1.209 -0.519,4.143 -1.641,5.521 h 11.784 c -1.118,-1.381 -1.637,-4.313 -1.637,-5.521 V 52.372 c 0,-9.75 6.031,-13.164 12.035,-13.164 5.434,0 10.344,2.352 10.344,13.164 v 26.646 c 0,1.209 -0.52,4.142 -1.637,5.521 h 11.428 c -1.123,-1.381 -1.637,-4.313 -1.637,-5.521 V 52.372 c 0,-10.811 6.678,-13.164 12.123,-13.164 5.43,0 11.111,3.411 11.111,13.164 v 26.646 c 0,1.209 -0.515,4.142 -1.642,5.521 h 11.008 c -1.127,-1.381 -1.639,-4.313 -1.639,-5.521 V 47.312 c 0,-5.404 -5.516,-14.063 -18.391,-14.063 -7.492,0 -11.818,3.333 -15.103,6.2 -2.793,-3.26 -7.34,-6.317 -14.647,-6.317 -7.116,-0.003 -11.319,4.17 -13.374,6.707 z"
   inkscape:connector-curvature="0"
   style="fill:#000080" />
	<path
   id="path16"
   d="m 305.621,56.453 c -1.543,1.453 -4.773,2.579 -8.107,3.019 -8.762,1.147 -16.352,2.604 -16.352,11.137 0,5.063 5.52,9.048 9.891,9.048 11.578,0 14.57,-8.353 14.57,-14.935 V 56.453 Z M 278.269,35.57 c 4.419,-1.771 11.549,-2.583 16.021,-2.583 11.42,0 19.008,5.705 19.008,18.95 v 21.972 c 0,4.069 0.062,7.924 1.512,10.631 h -9.178 L 305.3,78.76 c -3.473,4.487 -7.627,6.495 -14.676,6.495 -13.91,0 -16.946,-9.503 -16.946,-14.069 0,-16.297 15.512,-16.485 22.249,-17.447 3.728,-0.526 8.521,-1.58 9.244,-5.074 1.188,-5.78 -2.942,-10.114 -11.385,-10.114 -6.197,0 -11.273,1.885 -15.514,4.422 z m 197.303,20.883 c -1.541,1.453 -4.773,2.579 -8.109,3.019 -8.76,1.147 -16.348,2.604 -16.348,11.137 0,5.063 5.516,9.048 9.887,9.048 11.576,0 14.57,-8.353 14.57,-14.935 z M 448.223,35.57 c 4.418,-1.771 11.556,-2.583 16.023,-2.583 11.414,0 19.002,5.705 19.002,18.95 v 21.972 c 0,4.069 -0.887,7.841 1.508,10.631 h -9.176 l -0.334,-5.78 c -3.478,4.487 -7.625,6.495 -14.674,6.495 -13.902,0 -16.943,-9.503 -16.943,-14.069 0,-16.297 15.512,-16.485 22.246,-17.447 3.729,-0.526 8.527,-1.58 9.242,-5.074 1.19,-5.78 -2.941,-10.114 -11.385,-10.114 -6.195,0 -11.271,1.885 -15.513,4.422 v -7.4 z"
   inkscape:connector-curvature="0"
   style="fill:#000080" />
	<path
   id="path18"
   d="m 438.451,42.308 c -3.443,-2.012 -8.879,-3.605 -12.67,-3.605 -13.312,0 -19.412,8.185 -19.412,19.976 0,11.68 5.965,20.625 18.983,20.625 4.462,0 10.535,-2.006 15.25,-4.902 l -1.918,8.593 c -4.799,1.428 -8.842,2.108 -14.194,2.108 -18.295,0 -26.871,-12.977 -26.871,-26.479 0,-14.921 11.504,-25.417 27.072,-25.417 6.805,0 11.771,1.668 13.776,2.238 z"
   inkscape:connector-curvature="0"
   style="fill:#000080" />
	<path
   id="path20"
   d="m 233.646,59.304 c 0.008,-1.234 0.172,-2.41 0.31,-3.55 h 35.401 c 0,-12.169 -6.087,-22.608 -20.505,-22.608 -14.965,0 -23.85,11.703 -23.85,26.63 0,13.498 9.891,25.56 26.832,25.56 5.356,0 9.834,-1.319 14.669,-3.012 l 1.701,-8.63 c -4.135,3.404 -10.817,5.418 -16.849,5.418 -10.841,0 -17.756,-7.849 -17.709,-19.808 z m 1.431,-8.948 c 1.149,-5.92 6.628,-11.952 13.184,-11.952 10.018,0 12.917,7.817 12.917,11.952 -0.002,0 -26.101,0.019 -26.101,0 z"
   inkscape:connector-curvature="0"
   style="fill:#000080" />
</g><path
     id="path24"
     d="m 68.983912,1.3636827 c 4.208509,0.6319655 8.510327,2.1037241 10.752957,2.7887069 4.518129,1.3805689 11.851473,5.673905 14.442956,7.7309744 1.226819,0.973396 3.801336,3.523525 4.801241,4.806542 0.972337,1.250147 2.827944,3.958268 4.011284,5.628311 1.88847,2.753715 4.10778,6.856189 5.98883,10.629956 2.10372,4.218052 2.24793,5.439569 2.8852,8.965216 l 1.39011,6.215741 c 0.13042,1.075189 0.2407,5.016491 -2.0751,5.56787 -2.31261,0.55244 -4.45238,-0.512146 -5.46077,-2.072974 -1.39542,-2.158862 -1.20137,-5.223258 -2.78129,-8.730879 -1.23106,-2.835362 -1.76653,-6.956922 -3.733471,-9.919525 L 97.665178,30.367294 C 94.936911,26.168329 92.095187,22.835665 90.400756,20.661958 88.90461,18.834984 86.116963,16.352717 83.475644,14.587243 81.030489,13.104881 77.079645,11.413631 74.230498,10.544148 73.322843,10.248312 69.433498,9.1052601 67.020153,8.7839757 63.740507,8.416036 61.584826,7.8975274 58.470593,7.678036 54.621542,7.4065878 52.779723,7.0651567 47.78868,7.6483464 45.898085,8.1615533 42.905792,8.3651395 40.210396,9.3947343 38.033508,10.282243 35.008344,11.715829 32.04256,13.457976 c -3.193759,1.750629 -8.035293,5.329292 -11.249198,8.384146 -3.238293,3.459905 -4.8585,5.316569 -7.090526,9.702155 -0.987181,2.169465 -2.901104,5.527577 -3.673035,7.896388 -0.5269909,2.405922 -1.5300771,6.892241 -1.3636029,9.07231 0.077405,3.903129 -0.2650862,4.707931 0.028629,7.899568 0.010603,2.873535 0.9532499,4.864862 1.3466379,7.216707 0.334009,1.622328 1.894836,7.240034 2.856569,8.5485 4.378164,9.437069 10.258836,13.524698 16.812827,16.474577 1.847121,0.941586 7.62494,2.487569 9.296043,2.929733 2.852328,0.514267 6.602767,0.858879 10.214302,0.927801 3.799215,0.07316 9.036258,-0.438982 12.211991,-1.610663 3.439758,-1.264992 7.419232,-3.065457 7.372577,-3.01138 1.594759,-0.882206 4.031431,-2.318974 4.788517,-2.948818 1.466457,-0.938406 2.350785,-1.302104 3.217086,-2.205518 1.255449,-1.095336 2.012535,-1.727301 2.962604,-3.085603 0.526991,-0.764509 1.369965,-1.93725 2.18325,-2.974267 0.880086,-1.442069 1.38587,-2.961543 2.243689,-4.839414 1.026414,-2.781284 0.867362,-2.64662 1.063526,-5.595439 0.18556,-0.855699 -0.02121,-3.731354 -0.173896,-4.219112 -0.463371,-2.652983 -0.300078,-4.993164 -0.907656,-7.569802 -0.817525,-3.485353 -1.502508,-6.093801 -2.546948,-9.436008 -0.98506,-3.763164 -3.87662,-7.250638 -6.046086,-9.742448 -1.344517,-1.544923 -5.514853,-5.190388 -11.301155,-7.468009 -1.63081,-0.548198 -4.294396,-1.16956 -5.987767,-1.479181 -3.615776,-0.377482 -4.204267,-0.134663 -7.665232,0.117699 -1.191828,0.207827 -3.956147,0.772991 -4.975138,1.130327 -2.973207,1.04444 -4.066423,1.708216 -7.106431,3.569121 -1.4145,0.821767 -2.481207,1.450551 -3.928578,2.805672 -1.154715,1.068828 -1.980724,2.884138 -2.913827,3.949784 -1.281957,1.743207 -2.708121,4.067483 -3.664552,6.575199 -1.037017,2.494991 -1.371026,6.005793 -1.211974,8.265387 0,1.718819 0.467612,4.875466 0.653173,5.562569 0.18662,0.689224 0.653172,2.831121 0.752844,3.261621 0.102854,0.429439 1.214095,2.694336 1.369966,3.025163 0.628784,1.337095 1.830155,3.254199 3.852233,5.215837 1.496146,1.632931 4.382405,3.234051 6.546568,3.854353 1.938311,1.066707 5.208414,1.244845 7.019483,1.249086 0.889629,-0.0562 3.164069,-0.195103 4.350595,-0.478215 2.408043,-0.577888 2.850206,-0.593794 5.331413,-1.670044 2.226724,-1.032775 3.735595,-1.404956 5.286879,-2.548008 0,0 2.128112,-1.666862 3.095147,-2.888379 0.510026,-0.640449 1.38481,-3.711207 1.23106,-5.612405 -0.07316,-2.601026 0.30644,-4.077026 -0.226914,-6.216802 -0.530172,-2.140836 -1.435706,-4.620983 -2.418646,-6.15 -0.995664,-1.548103 -3.134379,-3.055913 -5.567871,-4.259405 -1.365724,-0.674379 -4.594474,-1.297862 -5.96656,-1.459034 -2.601026,-0.309621 -4.777913,0.872664 -6.100163,2.223543 -1.147293,1.310586 -3.414311,4.032491 -2.511957,6.846646 0.817526,2.544828 1.805767,5.25825 5.624069,5.057845 2.622232,0.547138 5.651637,-0.242819 6.662146,0.219491 1.498267,0.851457 2.072974,2.728267 1.530078,4.040974 -0.380664,2.526802 -2.802492,2.829 -5.382311,3.024104 -2.311551,0.387025 -8.18056,-0.744362 -9.468879,-1.710337 -0.865241,-0.513206 -2.191732,-1.746387 -3.123776,-2.581939 -0.671198,-0.602276 -1.427224,-1.93831 -1.947853,-2.898983 -0.634086,-1.181224 -0.957491,-2.049646 -1.120784,-2.817336 -0.196164,-0.911896 -0.595914,-2.657224 -0.444285,-4.399371 0.104974,-1.174862 0.417776,-1.677465 0.729517,-3.396284 0.624543,-1.951034 1.399655,-3.434457 2.648742,-5.125707 1.624448,-1.649896 3.688939,-3.613655 5.704655,-4.526612 1.777138,-0.939465 4.89137,-1.284077 7.706586,-1.119724 2.286103,0.218431 4.985741,0.497302 6.774543,1.095336 3.058034,1.092156 3.931758,1.310587 6.443715,2.894742 2.119629,1.311646 4.254103,3.728172 5.445931,5.727982 2.534224,5.185086 3.986896,10.951241 2.930793,18.718267 -0.08589,1.310586 -0.494121,2.590422 -1.311647,4.330448 -0.757086,1.602181 -2.078275,3.552155 -4.069603,5.017552 -0.7995,0.741181 -2.063431,1.655198 -3.090905,2.187491 -1.457974,0.884328 -2.437733,1.345578 -3.958267,2.109026 -1.336035,0.629845 -2.894741,1.346638 -4.926362,1.910741 -2.201276,0.870543 -3.891466,0.905535 -6.660026,1.318009 -2.722965,0.684983 -10.181431,0.198284 -14.624275,-1.762293 -3.029405,-1.275595 -6.429931,-3.521405 -9.018233,-6.260276 -1.435707,-1.50781 -2.842784,-4.237138 -3.254198,-4.795939 -2.057069,-3.954026 -2.45894,-7.669474 -2.789767,-8.454129 -0.447466,-1.060345 -0.669078,-3.439759 -0.971276,-5.067388 -0.33825,-1.828035 -0.129362,-9.480543 1.714578,-14.39206 1.040198,-1.956336 1.648836,-3.700604 2.350784,-4.615681 1.264991,-1.798345 1.87575,-2.92125 2.949879,-4.195785 1.620207,-1.963758 2.79931,-3.566999 4.376043,-4.698387 4.021888,-3.269043 7.37894,-4.995285 11.923577,-7.153086 5.645276,-2.298828 7.340767,-1.823793 12.685966,-1.737905 2.403801,0.02121 5.901879,0.777232 7.622818,1.088974 3.193759,0.425198 5.023914,1.195008 7.181716,1.797284 2.309431,0.64469 3.643344,1.675345 5.541362,2.819457 1.558707,1.006267 3.395224,2.386836 4.607198,3.507621 3.103629,2.275499 4.598715,4.666577 6.500974,7.603732 0.346733,0.492 2.603146,5.303845 2.962603,6.644121 0.167535,0.671198 0.6765,2.596784 1.006267,3.72287 0.419897,1.786681 0.626664,3.367655 1.098518,5.384431 0.419896,2.075095 1.136689,5.993069 1.44631,9.65656 0.524871,3.143922 -0.313862,9.560069 -0.805862,11.527008 -1.097457,3.671975 -3.021983,8.154052 -6.815897,12.471776 -1.610663,1.912862 -3.32418,3.392043 -5.304905,5.001646 -1.513112,1.26075 -2.813094,1.999811 -5.154336,3.395224 -3.176793,1.895897 -5.594379,3.107871 -10.048887,4.848957 -1.81319,0.58213 -4.099293,1.347699 -6.561414,1.855604 C 54.077585,100.39459 49.17455,100.81554 43.824051,100.1804 38.47249,99.542068 33.112447,98.035318 29.945197,97.064042 28.196689,96.408749 24.812068,94.991068 23.394387,94.222318 22.469767,93.755767 19.372499,91.637198 18.847629,91.128232 16.726939,89.816586 11.977655,85.350413 8.9111377,81.1875 8.2399394,79.89706 5.824474,76.040586 5.2996033,74.350396 3.9073706,71.490646 2.9360948,68.030741 2.3666896,66.552621 1.7644137,63.102259 0.74648274,60.881897 0.34991378,57.421992 0.39444827,56.607647 0.18662068,54.689483 0,53.628078 0.26932758,51.258207 -0.09118965,49.027242 0.37960344,46.446363 0.79313791,44.269475 1.3381551,43.360759 1.4696379,41.392759 1.5979396,40.550846 2.6794913,38.018742 2.9700258,36.891596 3.8458706,35.035992 4.0621809,33.508035 5.2041723,31.434001 6.8466464,28.20207 8.567586,24.484501 11.207845,21.236665 c 0.754965,-1.007328 2.89368,-3.422793 3.622137,-4.259405 1.723061,-1.72306 2.733569,-1.994509 4.687785,-3.72181 0.201465,-0.127242 1.494026,-1.599 2.847026,-2.104785 2.238387,-1.7304825 4.174577,-2.3645687 6.30693,-3.9391807 4.27213,-2.1291723 5.828716,-2.8480861 10.070095,-4.6135602 2.452577,-0.8747845 5.867948,-1.3572414 7.097948,-1.83439651 2.342302,-0.14526724 4.719595,-0.89174998 7.181715,-0.74436205 2.764319,-0.02544828 5.549845,0.17177585 8.329009,0.42413792 1.872569,0.10815517 4.317724,0.19934482 7.633422,0.92037924 z"
     inkscape:connector-curvature="0"
     style="fill:#ff0000;stroke-width:1.06034482" /></g>
</svg>